<?xml version="1.0" encoding="UTF-8" standalone="no"?>
<!-- Created with Inkscape (http://www.inkscape.org/) -->

<svg
   xmlns:dc="http://purl.org/dc/elements/1.1/"
   xmlns:cc="http://creativecommons.org/ns#"
   xmlns:rdf="http://www.w3.org/1999/02/22-rdf-syntax-ns#"
   xmlns:svg="http://www.w3.org/2000/svg"
   xmlns="http://www.w3.org/2000/svg"
   xmlns:sodipodi="http://sodipodi.sourceforge.net/DTD/sodipodi-0.dtd"
   xmlns:inkscape="http://www.inkscape.org/namespaces/inkscape"
   width="128"
   height="128"
   viewBox="0 0 33.866666 33.866668"
   version="1.1"
   id="svg8"
   inkscape:version="0.92.4 5da689c313, 2019-01-14"
   sodipodi:docname="baby.svg">
  <defs
     id="defs2" />
  <sodipodi:namedview
     id="base"
     pagecolor="#ffffff"
     bordercolor="#666666"
     borderopacity="1.0"
     inkscape:pageopacity="0.0"
     inkscape:pageshadow="2"
     inkscape:zoom="3.959798"
     inkscape:cx="67.19713"
     inkscape:cy="61.460863"
     inkscape:document-units="mm"
     inkscape:current-layer="layer1"
     showgrid="false"
     units="px"
     inkscape:window-width="1366"
     inkscape:window-height="713"
     inkscape:window-x="0"
     inkscape:window-y="27"
     inkscape:window-maximized="1" />
  <metadata
     id="metadata5">
    <rdf:RDF>
      <cc:Work
         rdf:about="">
        <dc:format>image/svg+xml</dc:format>
        <dc:type
           rdf:resource="http://purl.org/dc/dcmitype/StillImage" />
        <dc:title></dc:title>
      </cc:Work>
    </rdf:RDF>
  </metadata>
  <g
     inkscape:label="Layer 1"
     inkscape:groupmode="layer"
     id="layer1"
     transform="translate(0,-263.13332)">
    <path
       style="fill:none;stroke:#000000;stroke-width:0.26458332px;stroke-linecap:butt;stroke-linejoin:miter;stroke-opacity:1"
       d="m 5.4122079,273.48026 c 0.072219,-0.28887 0.066817,-0.17543 0.066817,-0.33408 0,-0.0223 -0.00996,-0.0469 0,-0.0668 0.014086,-0.0282 0.052731,-0.0386 0.066817,-0.0668 0.00994,-0.0199 0,-0.37279 0,-0.4009 0,-0.13364 0,-0.26727 0,-0.40091 0,-0.0445 0.010803,-0.0904 0,-0.13363 -0.017081,-0.0683 -0.049735,-0.13212 -0.066817,-0.20045 -0.0054,-0.0216 0.00996,-0.0469 0,-0.0668 -0.014086,-0.0282 -0.056857,-0.0369 -0.066817,-0.0668 -0.010186,-0.0306 0.014867,-0.23753 0,-0.26727 -0.014086,-0.0282 -0.056857,-0.0369 -0.066817,-0.0668 -0.014087,-0.0423 0,-0.0891 0,-0.13364 0,-0.0445 -0.014087,-0.0914 0,-0.13363 0.022273,-0.0446 0.044545,-0.0891 0.066817,-0.13364 0.022273,0 0.051068,0.0158 0.066817,0 0.033409,-0.0334 -0.033409,-0.16704 0,-0.20045 0.1382477,-0.13825 -0.0054,0.21126 0.133635,-0.0668 0.01992,-0.0398 -0.031498,-0.10213 0,-0.13363 0.015748,-0.0158 0.051068,0.0157 0.066817,0 0.031498,-0.0315 -0.01992,-0.0938 0,-0.13364 0.028173,-0.0563 0.1054622,-0.0773 0.1336347,-0.13363 0.012166,-0.0243 -0.011716,-0.26727 0,-0.26727 0.022273,0 0,0.0891 0,0.0668 0,-0.0668 0,-0.13364 0,-0.20046 0,-0.17818 0,-0.35636 0,-0.53454 0,-0.0373 -0.013145,-0.29465 0,-0.33408 0.015748,-0.0472 0.051068,-0.0864 0.066817,-0.13364 0.00704,-0.0211 -0.00704,-0.0457 0,-0.0668 0.080744,-0.24224 0.031702,-0.0476 0.1336347,-0.20046 0.027626,-0.0414 0.039192,-0.0922 0.066818,-0.13363 0.017473,-0.0262 0.044545,-0.0446 0.066817,-0.0668 0.066817,-0.0668 0.1336347,-0.13363 0.2004521,-0.20045 0.05219,-0.0522 0.1427953,-0.16202 0.200452,-0.20045 0.044545,-0.0223 0.08909,-0.0446 0.1336349,-0.0668 0.022273,0 0.046896,0.01 0.066817,0 0.056345,-0.0282 0.077289,-0.10546 0.1336347,-0.13364 0.019921,-0.01 0.046896,0.01 0.066817,0 0.028173,-0.0141 0.038645,-0.0527 0.066817,-0.0668 0.039842,-0.0199 0.091376,0.0141 0.1336349,0 0.047247,-0.0158 0.086388,-0.0511 0.1336347,-0.0668 0.059166,-0.0197 0.2678515,0.0166 0.334087,0 0.048316,-0.0121 0.086388,-0.0511 0.1336347,-0.0668 0.038706,-0.0129 0.2093666,0 0.2672694,0 0.022273,0 0.044545,0 0.066818,0 0.022273,0 0.066817,-0.0223 0.066817,0 0,0.0223 -0.082566,0.0158 -0.066817,0 0.044545,-0.0223 0.08909,-0.0445 0.1336347,-0.0668 0,-0.0223 -0.015748,-0.0511 0,-0.0668 0.015748,-0.0158 0.044545,0 0.066817,0 0.022273,0 0.051068,-0.0158 0.066817,0 0.015748,0.0157 -0.015748,0.0511 0,0.0668 0.015748,0.0157 0.044545,0 0.066817,0 0.022273,0 0.044545,0 0.066817,0 0.1336349,0 0.2672696,0 0.4009043,0 0.022273,0 0.044545,0 0.066817,0 0.022273,0 0.046896,-0.01 0.066818,0 0.028173,0.0141 0.036936,0.0568 0.066817,0.0668 0.030561,0.0102 0.2375371,-0.0149 0.2672694,0 0.1401379,0.0701 -0.0065,0.0636 0.1336347,0.13364 0.01992,0.01 0.044545,0 0.066818,0 0.044545,0 0.08909,0 0.1336347,0 0.9590235,0 2.1951805,0 2.9399645,0 0.111362,0 0.222724,0 0.334087,0 0.04454,0 0.178179,0 0.133634,0 -0.04454,0 -0.178179,0 -0.133634,0 0.155907,0 0.311814,0 0.467721,0 0.133635,0 0.26727,0 0.400904,0 0.02227,0 0.04454,0 0.06682,0 0.02227,0 0.0469,0.01 0.06682,0 0.02817,-0.0141 0.03865,-0.0527 0.06682,-0.0668 0.01992,-0.01 0.04569,0.007 0.06682,0 0.04725,-0.0158 0.08739,-0.0483 0.133635,-0.0668 0.135825,-0.0543 0.216563,-0.0553 0.334087,-0.13363 0.09192,-0.0613 0.06872,-0.10308 0.133634,-0.20045 0.03495,-0.0524 0.105463,-0.0773 0.133635,-0.13364 0.01,-0.0199 -0.01,-0.0469 0,-0.0668 0.02817,-0.0563 0.105462,-0.0773 0.133635,-0.13363 0.01,-0.0199 -0.01575,-0.0511 0,-0.0668 0.01575,-0.0158 0.04454,0 0.06682,0 0.133635,0 0.26727,0 0.400905,0 0.02227,0 0.04455,0 0.06682,0 0.02227,0 0.04829,0.0123 0.06682,0 0.05242,-0.0349 0.08122,-0.0987 0.133635,-0.13363 0.03267,-0.0218 0.247826,0.0194 0.26727,0 0.01575,-0.0157 -0.01575,-0.0511 0,-0.0668 0.0083,-0.008 0.225369,0 0.267269,0 0.04454,0 0.08909,0 0.133635,0 0.02227,0 0.06682,-0.0223 0.06682,0 0,0.0223 -0.06682,0.0223 -0.06682,0 0,-0.0315 0.04454,-0.0446 0.06682,-0.0668 0.02227,-0.0223 0.04454,-0.0445 0.06682,-0.0668 0.04454,-0.0445 0.08122,-0.0987 0.133635,-0.13363 0.04144,-0.0276 0.08909,-0.0446 0.133634,-0.0668 0.04455,-0.0223 0.08639,-0.0511 0.133635,-0.0668 0.02113,-0.007 0.04454,0 0.06682,0 0.06682,0 0.133634,0 0.200452,0 0.02227,0 0.04521,0.005 0.06682,0 0.245501,-0.0614 0.141376,-0.0668 0.334087,-0.0668 0.04454,0 0.08909,0 0.133635,0 0.02227,0 0.06682,-0.0223 0.06682,0 0,0.0223 -0.06682,0.0223 -0.06682,0 0,-0.0223 0.0469,-0.01 0.06682,0 0.02817,0.0141 0.03864,0.0527 0.06682,0.0668 0.01992,0.01 0.06682,-0.0223 0.06682,0 0,0.0223 -0.08257,-0.0157 -0.06682,0 0.03522,0.0352 0.0922,0.0392 0.133634,0.0668 0.02621,0.0175 0.03864,0.0527 0.06682,0.0668 0.01992,0.01 0.05107,-0.0158 0.06682,0 0.01575,0.0157 -0.01,0.0469 0,0.0668 0.02817,0.0563 0.105462,0.0773 0.133635,0.13363 0.0099,0.0198 0,0.33628 0,0.40091 0,0.0223 0,0.0445 0,0.0668 0,0.0223 -0.01575,0.0511 0,0.0668 0.03522,0.0352 0.09842,0.0316 0.133635,0.0668 0.01575,0.0157 0,0.0445 0,0.0668 0,0.0223 0,0.0445 0,0.0668 0,0.11137 0,0.22273 0,0.33409 0,0.0445 0.01409,0.0914 0,0.13363 -0.01575,0.0473 -0.05107,0.0864 -0.06682,0.13364 -0.01532,0.046 0.01971,0.16103 0,0.20045 -0.04009,0.0802 -0.160362,0.12027 -0.200452,0.20045 -0.01992,0.0399 0.01992,0.0938 0,0.13364 -0.01,0.0199 -0.05686,-0.0199 -0.06682,0 -0.01992,0.0398 0.01409,0.0914 0,0.13363 -0.005,0.0149 -0.247708,0.25749 -0.26727,0.26727 -0.01992,0.01 -0.04455,0 -0.06682,0 -0.02227,0 -0.06682,0.0223 -0.06682,0 0,-0.0223 0.08909,0 0.06682,0 -0.04455,0 -0.09379,-0.0199 -0.133635,0 -0.01992,0.01 0.01575,0.0511 0,0.0668 -0.0315,0.0315 -0.09379,-0.0199 -0.133635,0 -0.02817,0.0141 -0.03865,0.0527 -0.06682,0.0668 -0.03984,0.0199 -0.102137,-0.0315 -0.133635,0 -0.01575,0.0158 0.01575,0.0511 0,0.0668 -0.01575,0.0157 -0.0469,-0.01 -0.06682,0 -0.02817,0.0141 -0.09832,0.0668 -0.06682,0.0668 0.152736,0 0.260091,-0.26009 -0.06682,0.0668 -0.01575,0.0158 0.04454,0 0.06682,0 0.02227,0 0.04454,0 0.06682,0 0.03494,0 0.2497,-0.009 0.267269,0 0.02817,0.0141 0.03864,0.0527 0.06682,0.0668 0.01992,0.01 0.0469,-0.01 0.06682,0 0.203763,0.10188 -0.122205,0.053 0.200452,0.13363 0.304172,0 0.0038,-0.0315 0.200452,0.0668 0.04142,0.0207 0.293078,-0.0205 0.334087,0 0.08452,0.0423 0.133635,0.13363 0.200452,0.20045 0.02227,0.0223 0.04454,0.0445 0.06682,0.0668 0.02227,0.0223 0.03864,0.0527 0.06682,0.0668 0.01992,0.01 0.0469,-0.01 0.06682,0 0.05635,0.0282 0.08122,0.0987 0.133635,0.13363 0.04144,0.0276 0.0922,0.0392 0.133635,0.0668 0.05242,0.0349 0.08324,0.0958 0.133635,0.13363 0.01341,0.0101 0.236881,0.13968 0.267269,0.20046 0.01,0.0199 -0.01,0.0469 0,0.0668 0.01409,0.0282 0.05273,0.0387 0.06682,0.0668 0.05347,0.10695 -0.05347,0.0267 0,0.13363 0.01409,0.0282 0.05686,0.0369 0.06682,0.0668 0.02113,0.0634 0,0.13364 0,0.20045 0,0.15591 0,0.31182 0,0.46773 0,0.0301 -0.01017,0.18011 0,0.20045 0.01409,0.0282 0.05273,0.0386 0.06682,0.0668 0.0073,0.0147 0.0016,0.39594 0,0.4009 -0.01,0.0299 -0.05273,0.0386 -0.06682,0.0668 -0.01325,0.0265 0.01366,0.18679 0,0.20045 -0.01575,0.0158 -0.05107,-0.0157 -0.06682,0 -0.01575,0.0158 0.01575,0.0511 0,0.0668 -0.01575,0.0157 -0.05107,-0.0157 -0.06682,0 -0.01575,0.0157 0.02227,0.0668 0,0.0668 -0.02227,0 0,-0.0891 0,-0.0668 0,0.0445 0,0.0891 0,0.13363 0,0.0223 0.01,0.0469 0,0.0668 -0.01409,0.0282 -0.04935,0.0406 -0.06682,0.0668 -0.02763,0.0414 -0.03919,0.0922 -0.06682,0.13363 -0.01747,0.0262 -0.05686,0.0369 -0.06682,0.0668 -0.01409,0.0423 0.01409,0.0914 0,0.13363 -0.01,0.0299 -0.04454,0.0446 -0.06682,0.0668 -0.02227,0.0223 -0.04454,0.0446 -0.06682,0.0668 -0.08909,0.0891 -0.178179,0.17818 -0.267269,0.26727 -0.08909,0.0891 -0.17818,0.17818 -0.26727,0.26727 -0.02227,0.0223 -0.04454,0.0445 -0.06682,0.0668 -0.02227,0.0223 -0.03864,0.0527 -0.06682,0.0668 -0.01992,0.01 -0.0469,-0.01 -0.06682,0 -0.05635,0.0282 -0.08122,0.0987 -0.133635,0.13364 -0.04144,0.0276 -0.0922,0.0392 -0.133634,0.0668 -0.05242,0.035 -0.07729,0.10547 -0.133635,0.13364 -0.01992,0.01 -0.04569,-0.007 -0.06682,0 -0.04725,0.0158 -0.08639,0.0511 -0.133635,0.0668 -0.04226,0.0141 -0.09138,-0.0141 -0.133635,0 -0.260215,0.0867 -0.0063,0.0668 -0.26727,0.0668 -0.09945,0 -0.08528,-0.01 -0.200452,0.0668 -0.02621,0.0175 -0.03865,0.0527 -0.06682,0.0668 -0.03984,0.0199 -0.09138,-0.0141 -0.133635,0 -0.04725,0.0158 -0.08639,0.0511 -0.133635,0.0668 -0.03993,0.0133 -0.133634,-0.0346 -0.133634,0.0668 0,0.11081 0.0937,0.0469 0.133634,0.0668 0.02817,0.0141 0.03865,0.0527 0.06682,0.0668 0.03984,0.0199 0.09379,-0.0199 0.133635,0 0.02817,0.0141 0.03864,0.0527 0.06682,0.0668 0.03984,0.0199 0.09379,-0.0199 0.133635,0 0.278077,0.13904 -0.07143,-0.005 0.06682,0.13364 0.0315,0.0315 0.09379,-0.0199 0.133635,0 0.02817,0.0141 0.03864,0.0527 0.06682,0.0668 0.04215,0.0211 0.291934,-0.0211 0.334087,0 0.06575,0.0329 0.201519,0.23439 0.26727,0.26727 0.01992,0.01 0.0469,-0.01 0.06682,0 0.02817,0.0141 0.04061,0.0493 0.06682,0.0668 0.09552,0.0637 0.277483,0.0872 0.334087,0.20046 0.0177,0.0354 -0.0177,0.0982 0,0.13363 0.01409,0.0282 0.05273,0.0386 0.06682,0.0668 0.01208,0.0242 0,0.28761 0,0.33408 0,0.0223 0,0.0446 0,0.0668 0,0.0223 0.02227,0.0668 0,0.0668 -0.02227,0 0.01575,-0.0826 0,-0.0668 -0.03522,0.0352 -0.0316,0.0984 -0.06682,0.13364 -0.01575,0.0157 -0.0469,-0.01 -0.06682,0 -0.05635,0.0282 -0.07729,0.10546 -0.133635,0.13363 -0.01992,0.01 -0.0469,-0.01 -0.06682,0 -0.02817,0.0141 -0.03864,0.0527 -0.06682,0.0668 -0.01992,0.01 -0.0469,-0.01 -0.06682,0 -0.05634,0.0282 -0.07729,0.10546 -0.133635,0.13363 -0.042,0.021 -0.225273,-0.021 -0.267269,0 -0.02817,0.0141 -0.04455,0.0446 -0.06682,0.0668 -0.04454,0 -0.09137,-0.0141 -0.133634,0 -0.02988,0.01 -0.03864,0.0527 -0.06682,0.0668 -0.01992,0.01 -0.0469,-0.01 -0.06682,0 -0.02817,0.0141 -0.03694,0.0569 -0.06682,0.0668 -0.289293,0.0964 0.02456,-0.12774 -0.267269,0.0668 -0.02621,0.0175 -0.03694,0.0569 -0.06682,0.0668 -0.03056,0.0102 -0.237538,-0.0149 -0.26727,0 -0.02817,0.0141 -0.03865,0.0527 -0.06682,0.0668 -0.03984,0.0199 -0.09379,-0.0199 -0.133635,0 -0.02817,0.0141 -0.03865,0.0527 -0.06682,0.0668 -0.01992,0.01 -0.04454,0 -0.06682,0 -0.04455,0 -0.09042,-0.0108 -0.133635,0 -0.04832,0.0121 -0.08639,0.0511 -0.133634,0.0668 -0.06339,0.0211 -0.13563,-0.0162 -0.200453,0 -0.120935,-0.0403 -0.124268,0.10824 -0.200452,0.13364 -0.04226,0.0141 -0.09042,-0.0108 -0.133635,0 -0.04832,0.0121 -0.0848,0.0571 -0.133634,0.0668 -0.1092,0.0218 -0.224888,-0.0218 -0.334087,0 -0.06906,0.0138 -0.131388,0.053 -0.200452,0.0668 -0.04368,0.009 -0.08909,0 -0.133635,0 -0.08909,0 -0.17818,0 -0.26727,0 -0.02227,0 -0.04521,-0.005 -0.06682,0 -0.06833,0.0171 -0.131388,0.053 -0.200452,0.0668 -0.04368,0.009 -0.08909,0 -0.133635,0 -0.222725,0 -0.445449,0 -0.668174,0 -0.133635,0 -0.269864,-0.0262 -0.400904,0 -0.09767,0.0195 -0.172776,0.10214 -0.26727,0.13363 -0.04226,0.0141 -0.0897,-0.007 -0.133634,0 -0.09058,0.0151 -0.176361,0.0538 -0.26727,0.0668 -0.06615,0.009 -0.133635,0 -0.200452,0 -0.133635,0 -0.26727,0 -0.400904,0 -0.289542,0 -0.579084,0 -0.868626,0 -0.133635,0 -0.267269,0 -0.400904,0 -0.04455,0 -0.08909,0 -0.133635,0 -0.04455,0 -0.09138,0.0141 -0.133635,0 -0.02988,-0.01 -0.03694,-0.0568 -0.06682,-0.0668 -0.04226,-0.0141 -0.09042,0.0108 -0.133634,0 -0.04832,-0.0121 -0.08639,-0.0511 -0.1336351,-0.0668 -0.02113,-0.007 -0.04455,0 -0.06682,0 -0.066817,-0.0223 -0.1350574,-0.0407 -0.2004516,-0.0668 -0.046241,-0.0185 -0.087394,-0.0483 -0.1336349,-0.0668 -0.065394,-0.0261 -0.1350579,-0.0407 -0.2004521,-0.0668 -0.046241,-0.0185 -0.087394,-0.0483 -0.1336347,-0.0668 -0.065394,-0.0262 -0.1350579,-0.0407 -0.2004523,-0.0668 -0.046241,-0.0185 -0.087394,-0.0483 -0.1336347,-0.0668 -0.065394,-0.0261 -0.137456,-0.0353 -0.200452,-0.0668 -0.6302452,-0.31513 0.014632,-0.0125 -0.2672696,-0.20046 -0.117524,-0.0784 -0.1982616,-0.0793 -0.334087,-0.13363 -0.2855976,-0.11424 0.022529,-0.007 -0.2672694,-0.20045 -0.018531,-0.0124 -0.046896,0.01 -0.066817,0 -0.028173,-0.0141 -0.044545,-0.0446 -0.066817,-0.0668 -0.022273,-0.0223 -0.052731,-0.0387 -0.066817,-0.0668 -0.00996,-0.0199 0.00996,-0.0469 0,-0.0668 -0.028173,-0.0563 -0.1054622,-0.0773 -0.133635,-0.13363 -0.00996,-0.0199 0.00996,-0.0469 0,-0.0668 -0.014086,-0.0282 -0.044545,-0.0445 -0.066817,-0.0668 -0.044545,-0.0445 -0.08909,-0.0891 -0.1336347,-0.13363 -0.1336347,-0.13363 -0.2672697,-0.26727 -0.4009044,-0.4009 -0.066817,-0.0668 -0.1480362,-0.12183 -0.200452,-0.20046 -0.024709,-0.0371 0.014086,-0.0914 0,-0.13363 -0.019664,-0.059 -0.1652037,-0.34803 -0.2004523,-0.40091 -0.034944,-0.0524 -0.08909,-0.0891 -0.1336347,-0.13363 -0.066817,-0.0668 -0.1336347,-0.13363 -0.200452,-0.20045 -0.022273,-0.0223 -0.044545,-0.0446 -0.066818,-0.0668 -0.022273,-0.0223 -0.052731,-0.0386 -0.066817,-0.0668 -0.00996,-0.0199 0.00996,-0.0469 0,-0.0668 -0.029611,-0.0592 -0.1599022,-0.13963 -0.200452,-0.20046 -0.027626,-0.0414 -0.039192,-0.0922 -0.066817,-0.13363 -0.034944,-0.0524 -0.1012237,-0.0796 -0.1336349,-0.13364 -0.051246,-0.0854 -0.08909,-0.17818 -0.1336347,-0.26727 z"
       id="path851"
       inkscape:connector-curvature="0" />
    <path
       style="fill:none;stroke:#000000;stroke-width:0.26458332px;stroke-linecap:butt;stroke-linejoin:miter;stroke-opacity:1"
       d="m 13.964832,270.33985 c 0.317667,-0.23825 0.188525,-0.12171 0.400904,-0.33409 0.02227,-0.0223 0.03864,-0.0527 0.06682,-0.0668 0.03984,-0.0199 0.09379,0.0199 0.133635,0 0.05635,-0.0282 0.07729,-0.10546 0.133634,-0.13363 0.03984,-0.0199 0.09379,0.0199 0.133635,0 0.05635,-0.0282 0.07729,-0.10546 0.133635,-0.13364 0.05345,-0.0267 0.146998,0.0267 0.200452,0 0.02817,-0.0141 0.03865,-0.0527 0.06682,-0.0668 0.01757,-0.009 0.232329,0 0.267269,0 0.02227,0 0.08909,0 0.06682,0 -0.04454,0 -0.178179,0 -0.133634,0 0.06682,0 0.133634,0 0.200452,0 0.02227,0 0.05107,-0.0157 0.06682,0 0.08909,0.0891 -0.111362,0.0668 0.06682,0.0668"
       id="path853"
       inkscape:connector-curvature="0" />
    <path
       style="fill:none;stroke:#000000;stroke-width:0.26458332px;stroke-linecap:butt;stroke-linejoin:miter;stroke-opacity:1"
       d="m 9.3544334,271.80983 c -0.08909,0.0891 -0.1781797,0.17818 -0.2672694,0.26727 0,0.0223 0.00996,0.0469 0,0.0668 -0.028173,0.0563 -0.1054621,0.0773 -0.133635,0.13363 -0.00878,0.0176 0,0.23233 0,0.26727 0,0.0223 0,0.0445 0,0.0668 0,0.0223 -0.015748,0.0511 0,0.0668 0.1382477,0.13824 -0.0054,-0.21126 0.133635,0.0668 0.01992,0.0399 -0.019921,0.0938 0,0.13364 0.1390388,0.27808 -0.00461,-0.0714 0.1336347,0.0668 0.015748,0.0157 -0.00996,0.0469 0,0.0668 0.014086,0.0282 0.08909,0.0446 0.066817,0.0668 -0.022273,0.0223 -0.098315,-0.0668 -0.066817,-0.0668 0.049803,0 0.086388,0.0511 0.1336347,0.0668 0.02113,0.007 0.044545,0 0.066817,0 0.08909,0 0.1781797,0 0.2672697,0 0.022273,0 0.044545,0 0.066817,0 0.022273,0 0.066817,-0.0223 0.066817,0 0,0.0223 -0.044545,0 -0.066817,0"
       id="path855"
       inkscape:connector-curvature="0" />
    <path
       style="fill:none;stroke:#000000;stroke-width:0.26458332px;stroke-linecap:butt;stroke-linejoin:miter;stroke-opacity:1"
       d="m 17.706606,273.88117 c 0,-0.46931 0.063,-0.10596 -0.133635,-0.40091 -0.02471,-0.0371 0.0315,-0.10213 0,-0.13363 -0.01575,-0.0158 -0.05686,0.0199 -0.06682,0 -0.01992,-0.0398 0.01992,-0.0938 0,-0.13364 -0.01,-0.0199 -0.05107,0.0158 -0.06682,0 -0.01575,-0.0157 0.01,-0.0469 0,-0.0668 -0.01409,-0.0282 -0.04455,-0.0446 -0.06682,-0.0668 0,-0.0445 0.01409,-0.0914 0,-0.13363 -0.01508,-0.0453 -0.174932,-0.14942 -0.200452,-0.20046 -0.01992,-0.0398 0.01992,-0.0938 0,-0.13363 -0.01409,-0.0282 -0.04454,-0.0446 -0.06682,-0.0668 -0.04455,-0.0445 -0.09869,-0.0812 -0.133634,-0.13363 -0.01235,-0.0185 0.01,-0.0469 0,-0.0668 -0.01409,-0.0282 -0.04935,-0.0406 -0.06682,-0.0668 -0.02762,-0.0414 -0.03919,-0.0922 -0.06682,-0.13363 -0.01747,-0.0262 -0.04455,-0.0445 -0.06682,-0.0668 -0.02227,-0.0445 -0.03919,-0.0922 -0.06682,-0.13364 -0.04055,-0.0608 -0.170841,-0.14122 -0.200452,-0.20045 -0.01,-0.0199 0.01,-0.0469 0,-0.0668 -0.07387,-0.14774 -0.04147,-0.0207 -0.133635,-0.0668 -0.02817,-0.0141 -0.04061,-0.0494 -0.06682,-0.0668 -0.08295,-0.0553 -0.247159,-0.1119 -0.334087,-0.13363 -0.02161,-0.005 -0.04454,0 -0.06682,0 -0.08909,0 -0.178179,0 -0.267269,0 -0.04454,0 -0.09042,0.0108 -0.133635,0 -0.675097,-0.16878 0.04826,0.0241 -0.267269,-0.13364 -0.01992,-0.01 -0.04455,0 -0.06682,0 -0.06678,0 -0.276922,0.0143 -0.334087,0 -0.06833,-0.0171 -0.132123,-0.0497 -0.200452,-0.0668 -0.05265,-0.0132 -0.223684,0 -0.26727,0 -0.155907,0 -0.311814,0 -0.467721,0 -0.01547,0 -0.377039,-0.0119 -0.400904,0 -0.02817,0.0141 -0.03864,0.0527 -0.06682,0.0668 -0.01992,0.01 -0.0469,-0.01 -0.06682,0 -0.05634,0.0282 -0.08122,0.0987 -0.133635,0.13364 -0.04144,0.0276 -0.09842,0.0316 -0.133635,0.0668 -0.01575,0.0158 0.01,0.0469 0,0.0668 -0.03287,0.0658 -0.234394,0.20152 -0.267269,0.26727 -0.01,0.0199 0.007,0.0457 0,0.0668 -0.01575,0.0472 -0.05107,0.0864 -0.06682,0.13363 -0.007,0.0211 0,0.0445 0,0.0668 -0.02227,0.0891 -0.03271,0.18201 -0.06682,0.26727 -0.0117,0.0292 -0.05686,0.0369 -0.06682,0.0668 -0.02113,0.0634 0,0.13363 0,0.20045 0,0.15591 0,0.31181 0,0.46772 0,0.0159 -0.0075,0.25229 0,0.26727 0.152898,0.3058 -0.02769,-0.28353 0.133634,0.20045 0.007,0.0211 -0.01575,0.0511 0,0.0668 0.03522,0.0352 0.0922,0.0392 0.133635,0.0668 0.02832,0.0189 0.18663,0.1728 0.200452,0.20045 0.01,0.0199 -0.01,0.0469 0,0.0668 0.01409,0.0282 0.05273,0.0386 0.06682,0.0668 0.01,0.0199 -0.01,0.0469 0,0.0668 0.01409,0.0282 0.04934,0.0406 0.06682,0.0668 0.02763,0.0414 0.03919,0.0922 0.06682,0.13363 0.05583,0.0837 0.07781,0.0499 0.133635,0.13364 0.05525,0.0829 0.07838,0.18439 0.133635,0.26727 0.05582,0.0837 0.07781,0.0499 0.133635,0.13363 0.04069,0.061 0.05703,0.16215 0.133634,0.20045 0.01992,0.01 0.0469,-0.01 0.06682,0 0.02817,0.0141 0.03865,0.0527 0.06682,0.0668 0.01992,0.01 0.0469,-0.01 0.06682,0 0.02817,0.0141 0.03626,0.0592 0.06682,0.0668 0.06482,0.0162 0.13563,-0.0162 0.200452,0 0.0094,0.002 0.114231,0.1207 0.133635,0.13363 0.03365,0.14721 0.137456,0.0353 0.200452,0.0668 0.02817,0.0141 0.03864,0.0527 0.06682,0.0668 0.042,0.021 0.225274,-0.021 0.26727,0 0.02817,0.0141 0.03864,0.0527 0.06682,0.0668 0.01992,0.01 0.04455,0 0.06682,0 0.111362,0 0.222724,0 0.334087,0 0.04455,0 0.09042,-0.0108 0.133634,0 0.120936,-0.0403 0.124269,0.10824 0.200453,0.13363 0.03592,0.012 0.210698,0 0.267269,0 0.222725,0 0.445449,0 0.668174,0 0.05332,0 0.294,0.0134 0.334087,0 0.143309,-0.0478 0.231375,-0.16456 0.334087,-0.26727 0.02227,-0.0223 0.04454,-0.0445 0.06682,-0.0668 0.02227,-0.0223 0.03864,-0.0527 0.06682,-0.0668 0.01992,-0.01 0.05107,0.0157 0.06682,0 0.01575,-0.0157 0,-0.0445 0,-0.0668"
       id="path857"
       inkscape:connector-curvature="0" />
    <path
       style="fill:none;stroke:#000000;stroke-width:0.26458332px;stroke-linecap:butt;stroke-linejoin:miter;stroke-opacity:1"
       d="m 16.236623,274.14844 c 0.04454,0.0891 0.07387,0.18758 0.133635,0.26727 0.01336,0.0178 0.04454,0 0.06682,0 0.0162,0 0.198303,0.002 0.200452,0 0.01575,-0.0157 0,-0.0446 0,-0.0668 0,-0.0691 0.01575,-0.0924 -0.06682,-0.13363 -0.01992,-0.01 -0.04498,0.004 -0.06682,0 -0.09005,-0.018 -0.202335,-0.13176 -0.26727,-0.0668 -0.0958,0.0958 -0.05001,0.26647 -0.06682,0.4009 -0.0055,0.0442 0,0.0891 0,0.13364 0,0.0223 -0.01,0.0469 0,0.0668 0.06992,0.13986 0.31445,0.0432 0.400904,0 0.02817,-0.0141 0.05273,-0.0386 0.06682,-0.0668 0.0089,-0.0177 0.0042,-0.45503 0,-0.46772 -0.02752,-0.0826 -0.07424,-0.0668 -0.133635,-0.0668 -0.08909,0 -0.209291,-0.0676 -0.26727,0 -0.06124,0.0714 -0.264034,0.43593 -0.06682,0.53454 0.01992,0.01 0.0469,-0.01 0.06682,0 0.02817,0.0141 0.03864,0.0527 0.06682,0.0668 0.01992,0.01 0.04454,0 0.06682,0 0.04454,0 0.09138,0.0141 0.133635,0 0.02988,-0.01 0.04454,-0.0445 0.06682,-0.0668 0.02227,-0.0223 0.05273,-0.0386 0.06682,-0.0668 0.01,-0.0199 0,-0.0445 0,-0.0668 0,-0.0223 0,-0.0445 0,-0.0668 0,-0.11137 0,-0.22273 0,-0.33409 0,-0.0223 0,-0.0446 0,-0.0668 0,-0.0223 0.01575,-0.0511 0,-0.0668 -0.01575,-0.0157 -0.0469,0.01 -0.06682,0 -0.02817,-0.0141 -0.03865,-0.0527 -0.06682,-0.0668 -0.02034,-0.0102 -0.170361,0 -0.200452,0 -0.02227,0 -0.05978,-0.0211 -0.06682,0 -0.02113,0.0634 0.0074,0.13404 0,0.20045 -0.01496,0.13465 -0.06682,0.26542 -0.06682,0.4009 0,0.0223 0.04454,0 0.06682,0 0.02227,0 0.04454,0 0.06682,0 0.04454,0 0.08909,0 0.133635,0 0.02227,0 0.0469,0.01 0.06682,0 0.205277,-0.10264 -0.110513,-0.0377 0.133635,-0.20045 0.03623,-0.0241 0.267269,0.0546 0.267269,-0.0668 0,-0.0223 -0.0469,0.01 -0.06682,0 -0.02817,-0.0141 -0.05273,-0.0386 -0.06682,-0.0668 -0.01992,-0.0399 0.01992,-0.0938 0,-0.13364 -0.01409,-0.0282 -0.04454,-0.0445 -0.06682,-0.0668 -0.02227,-0.0223 -0.03865,-0.0527 -0.06682,-0.0668 -0.01992,-0.01 -0.0469,0.01 -0.06682,0 -0.05635,-0.0282 -0.07387,-0.11372 -0.133634,-0.13364 -0.04226,-0.0141 -0.08909,0 -0.133635,0 -0.02227,0 -0.0469,-0.01 -0.06682,0 -0.02817,0.0141 -0.04455,0.0446 -0.06682,0.0668 -0.02227,0.0223 -0.07446,0.0363 -0.06682,0.0668 0.01947,0.0779 0.15671,0.12353 0.133634,0.20045 -0.02922,0.0974 -0.410987,0.37065 -0.334087,0.60135 0.01,0.0299 0.05273,0.0386 0.06682,0.0668 0.01992,0.0398 -0.04454,0.13364 0,0.13364 0.0315,0 0.04454,-0.0445 0.06682,-0.0668 0.04454,-0.0445 0.08909,-0.0891 0.133635,-0.13364 0.02227,-0.0223 0.03865,-0.0527 0.06682,-0.0668 0.11792,-0.059 0.04399,0.1418 0.200453,-0.0668 0.102408,-0.13654 0.06682,-0.37655 0.06682,-0.53454 0,-0.0566 0.01197,-0.23135 0,-0.26727 -0.01819,-0.0546 -0.171216,-0.12779 -0.200452,-0.13363 -0.08736,-0.0175 -0.17818,0 -0.26727,0 -0.04614,0 -0.246955,-0.0102 -0.267269,0 -0.02817,0.0141 -0.04454,0.0445 -0.06682,0.0668 -0.02227,0.0223 -0.05273,0.0387 -0.06682,0.0668 -0.01165,0.0233 0,0.35186 0,0.40091 0,0.0347 -0.0059,0.3252 0,0.33408 0.03494,0.0524 0.08909,0.0891 0.133635,0.13364 0.02227,0.0223 0.03864,0.0527 0.06682,0.0668 0.01992,0.01 0.04454,0 0.06682,0 0.04454,0 0.09138,-0.0141 0.133635,0 0.02988,0.01 0.03865,0.0527 0.06682,0.0668 0.01992,0.01 0.04454,0 0.06682,0 0.02227,0 0.04454,0 0.06682,0 0.01588,0 0.252294,0.007 0.26727,0 0.07007,-0.035 0.06357,-0.0986 0.133635,-0.13363 0.01992,-0.01 0.0469,0.01 0.06682,0 0.01774,-0.009 0.191582,-0.18271 0.200452,-0.20045 0.01997,-0.0399 -0.01249,-0.13364 -0.06682,-0.13364 -0.0315,0 -0.03865,0.0527 -0.06682,0.0668 -0.01992,0.01 -0.04454,0 -0.06682,0 -0.04455,0 -0.09496,0.0221 -0.133635,0 -0.123823,-0.0708 -0.195731,-0.30186 -0.334087,-0.26727 -0.144947,0.0362 -0.141597,0.26357 -0.200452,0.4009 -0.0088,0.0205 -0.007,0.0457 0,0.0668 0.01575,0.0473 0.03919,0.0922 0.06682,0.13363 0.04055,0.0608 0.17084,0.14123 0.200452,0.20046 0.04104,0.0821 0.033,0.21695 0.133635,0.26727 0.03984,0.0199 0.09379,-0.0199 0.133634,0 0.02817,0.0141 0.03532,0.0668 0.06682,0.0668 0.02227,0 0,-0.0445 0,-0.0668 0,-0.0223 0,-0.0445 0,-0.0668 0,-0.066 0.01317,-0.30775 0,-0.33409 -0.01604,-0.16797 -0.196514,-0.21026 -0.26727,-0.33408 -0.05951,-0.10414 -0.02636,-0.28045 -0.133635,-0.33409 -0.121175,-0.0606 -0.265426,0.0668 -0.400904,0.0668 -0.02227,0 0,-0.0446 0,-0.0668 0,-0.0668 0,-0.13364 0,-0.20045 0,-0.0223 0.02227,-0.0668 0,-0.0668 -0.0315,0 -0.05273,0.0386 -0.06682,0.0668 -0.01,0.0199 0,0.0445 0,0.0668 0,0.0223 0,0.0446 0,0.0668 0,0.0159 -0.0075,0.25229 0,0.26727 0.0087,0.0174 0.08755,0.1129 0.133634,0.0668 0.01575,-0.0157 0,-0.0446 0,-0.0668 0,-0.0223 0,-0.0445 0,-0.0668 0,-0.0445 0.01992,-0.0938 0,-0.13363 -0.02227,-0.0446 -0.111362,0.0223 -0.133634,0.0668 -0.01,0.0199 0,0.0445 0,0.0668 0,0.0223 0,0.0891 0,0.0668 0,-0.20045 0,-0.4009 0,-0.60136 0,-0.0668 0,-0.13363 0,-0.20045 0,-0.0223 -0.02227,-0.0668 0,-0.0668 0.02227,0 -0.01,0.0469 0,0.0668 0.01409,0.0282 0.05273,0.0387 0.06682,0.0668 0.01,0.0199 0,0.0445 0,0.0668 0,0.0223 0,0.0445 0,0.0668 0,0.15591 0,0.31182 0,0.46773 0,0.0223 0,0.0445 0,0.0668 0,0.0223 0.02227,0.0668 0,0.0668 -0.02227,0 -0.01575,-0.0511 0,-0.0668 0.01575,-0.0157 0.04569,0.007 0.06682,0 0.113786,-0.0379 0.334087,-0.25357 0.334087,-0.13363 0,0.17395 -0.211083,0.2779 -0.334087,0.4009 -0.01575,0.0158 0,-0.0891 0,-0.0668 0,0.0445 -0.02471,0.0966 0,0.13363 0.08338,0.12507 0.164418,0.0325 0.26727,0.0668 0.02988,0.01 0.03865,0.0527 0.06682,0.0668 0.01992,0.01 0.04454,0 0.06682,0 0.02227,0 0.04454,0 0.06682,0 0.04454,0 0.09138,0.0141 0.133635,0 0.02988,-0.01 0.04454,-0.0445 0.06682,-0.0668 0.02227,-0.0223 0.05273,-0.0386 0.06682,-0.0668 0.0017,-0.003 0.0017,-0.19696 0,-0.20045 -0.08318,-0.16636 -0.03489,-0.008 -0.133635,-0.0668 -0.09549,-0.0573 -0.17818,-0.26727 -0.26727,-0.20045 -0.106908,0.0802 0,0.26727 0,0.4009 0,0.0223 0,0.0891 0,0.0668 0,-0.0445 0,-0.0891 0,-0.13363 0,-0.11137 0.07874,-0.25535 0,-0.33409 -0.07884,-0.0788 -0.387209,-0.16103 -0.467721,0 -0.03674,0.0735 0.06435,0.13487 -0.06682,0.20045 -0.03984,0.0199 -0.102136,-0.0315 -0.133635,0 -0.04608,0.0461 0.04942,0.12494 0.06682,0.13364 0.03984,0.0199 0.09379,-0.0199 0.133635,0 0.02817,0.0141 0.03693,0.0568 0.06682,0.0668 0.04226,0.0141 0.08909,0 0.133635,0 0.04454,0 0.08909,0 0.133635,0 0.04614,0 0.246954,0.0102 0.267269,0 0.02817,-0.0141 0.04454,-0.0445 0.06682,-0.0668 0.02227,-0.0223 0.05273,-0.0387 0.06682,-0.0668 0.01,-0.0199 0,-0.0446 0,-0.0668 0,-0.48941 -0.02113,-0.0598 1.202713,-0.46772"
       id="path859"
       inkscape:connector-curvature="0" />
    <path
       style="fill:none;stroke:#000000;stroke-width:0.26458332px;stroke-linecap:butt;stroke-linejoin:miter;stroke-opacity:1"
       d="m 9.8221469,277.48868 c 0.4231791,0.17839 0.8545821,0.3384 1.2695381,0.53517 0.01027,0.005 -0.01644,0.2426 0,0.26727 0.03494,0.0524 0.09869,0.0812 0.133635,0.13363 0.01926,0.0289 -0.01924,0.34317 0,0.40091 0.01575,0.0472 0.05474,0.0853 0.06682,0.13363 0.01231,0.0492 -0.01957,0.29494 0,0.33409 0.01409,0.0282 0.05273,0.0386 0.06682,0.0668 0.01017,0.0203 0,0.17036 0,0.20046 0,0.13363 0,0.26727 0,0.4009 0,0.0707 0.01148,0.4333 0,0.46772 -0.01992,0.0598 -0.105462,0.0773 -0.133634,0.13364 -0.01992,0.0398 0.04454,0.13363 0,0.13363 -0.02227,0 0,-0.0891 0,-0.0668 0,0.0668 0,0.13364 0,0.20046 0,0.0223 0,0.0445 0,0.0668 0,0.0223 0.01,0.0469 0,0.0668 -0.08257,0.16513 -0.06682,-0.0231 -0.06682,0.13364 0,0.0647 0.01328,0.36106 0,0.4009 -0.161328,0.48399 0.01927,-0.10534 -0.133634,0.20045 -0.01,0.0199 0.01,0.0469 0,0.0668 -0.01409,0.0282 -0.05273,0.0386 -0.06682,0.0668 -0.0088,0.0176 0,0.23233 0,0.26727 0,0.0223 -0.01575,0.0511 0,0.0668 0.03522,0.0352 0.09842,0.0316 0.133635,0.0668 0.01575,0.0158 0,0.0446 0,0.0668 0,0.0465 0.01208,0.30992 0,0.33409 -0.01409,0.0282 -0.05686,0.0369 -0.06682,0.0668 -0.01019,0.0306 0.01487,0.23754 0,0.26727 -0.01409,0.0282 -0.05273,0.0387 -0.06682,0.0668 -0.01017,0.0203 0,0.17036 0,0.20045 0,0.13364 0,0.26727 0,0.40091 0,0.0357 -0.0096,0.31496 0,0.33408 0.01409,0.0282 0.05273,0.0386 0.06682,0.0668 0.01992,0.0398 -0.01992,0.0938 0,0.13364 0.04009,0.0802 0.160361,0.12027 0.200452,0.20045 0.02673,0.0534 -0.02673,0.147 0,0.20045 0.01409,0.0282 0.05273,0.0386 0.06682,0.0668 0.0315,0.063 0.03532,0.13745 0.06682,0.20045 0.01409,0.0282 0.04455,0.0445 0.06682,0.0668 0.02227,0.0223 0.03864,0.0527 0.06682,0.0668 0.01992,0.01 0.0469,-0.01 0.06682,0 0.02817,0.0141 0.03864,0.0527 0.06682,0.0668 0.03984,0.0199 0.09379,-0.0199 0.133635,0 0.02817,0.0141 0.04061,0.0494 0.06682,0.0668 0.04144,0.0276 0.0922,0.0392 0.133635,0.0668 0.02621,0.0175 0.03865,0.0527 0.06682,0.0668 0.01992,0.01 0.0469,-0.01 0.06682,0 0.278078,0.13904 -0.07143,-0.005 0.06682,0.13364 0.03522,0.0352 0.08639,0.0511 0.133635,0.0668 0.02113,0.007 0.05107,-0.0158 0.06682,0 0.0315,0.0315 -0.01992,0.0938 0,0.13363 0.06679,0.13359 0.155513,-0.001 0.200452,0.13364 1.01e-4,2.9e-4 -6.3e-5,0.20038 0,0.20045 0.01575,0.0158 0.05107,-0.0158 0.06682,0 0.03522,0.0352 0.03919,0.0922 0.06682,0.13363 0.01747,0.0262 0.05273,0.0387 0.06682,0.0668 0.01017,0.0203 0,0.17036 0,0.20045 0,0.17818 0,0.35636 0,0.53454 0,0.0301 -0.01017,0.18012 0,0.20045 0.01409,0.0282 0.05273,0.0386 0.06682,0.0668 0.01208,0.0242 0,0.28761 0,0.33409 0,0.11136 0,0.22272 0,0.33408 0,0.0446 0.01409,0.0914 0,0.13364 -0.01575,0.0472 -0.03919,0.0922 -0.06682,0.13363 -0.01747,0.0262 -0.05686,0.0369 -0.06682,0.0668 -0.01409,0.0423 0.01409,0.0914 0,0.13364 -0.0071,0.0212 -0.262586,0.26024 -0.26727,0.26726 -0.01235,0.0185 0,0.0446 0,0.0668 -0.02227,0.0223 -0.04454,0.0446 -0.06682,0.0668 -0.02227,0.0223 -0.04454,0.0446 -0.06682,0.0668 -0.02227,0.0223 -0.05686,0.0369 -0.06682,0.0668 -0.01409,0.0423 0.0108,0.0904 0,0.13364 -0.04845,0.19379 -0.05213,0.0782 -0.133634,0.20045 -0.14721,0.0337 -0.03532,0.13746 -0.06682,0.20045 -0.01409,0.0282 -0.05273,0.0386 -0.06682,0.0668 -0.01,0.0199 0.01,0.0469 0,0.0668 -0.01409,0.0282 -0.05273,0.0386 -0.06682,0.0668 -0.01,0.0199 0.01,0.0469 0,0.0668 -0.01547,0.0309 -0.227971,0.22798 -0.267269,0.26727 -0.015,0.015 -0.254019,0.26396 -0.26727,0.26727 -0.06482,0.0162 -0.135629,-0.0162 -0.200452,0 -0.06111,0.0153 -0.07729,0.10546 -0.133634,0.13364 -0.09217,0.0461 -0.05977,-0.0809 -0.133635,0.0668 -0.01,0.0199 0.01575,0.0511 0,0.0668 -0.0315,0.0315 -0.09379,-0.0199 -0.133635,0 -0.02817,0.0141 -0.03864,0.0527 -0.06682,0.0668 -0.01992,0.01 -0.05107,-0.0157 -0.06682,0 -0.01575,0.0157 0.01,0.0469 0,0.0668 -0.01409,0.0282 -0.04455,0.0445 -0.06682,0.0668"
       id="path861"
       inkscape:connector-curvature="0" />
    <path
       style="fill:none;stroke:#000000;stroke-width:0.26458332px;stroke-linecap:butt;stroke-linejoin:miter;stroke-opacity:1"
       d="m 15.90253,277.08781 c -0.311812,0.24519 -0.634358,0.47732 -0.935437,0.73558 -0.01047,0.009 -0.0053,0.18448 0,0.20046 0.01575,0.0472 0.05107,0.0864 0.06682,0.13363 0.01314,0.0394 0,0.29676 0,0.33409 0,0.17818 0,0.35636 0,0.53454 0,0.0159 -0.0075,0.25229 0,0.26727 0.01409,0.0282 0.05686,0.0369 0.06682,0.0668 0.01129,0.0339 0,0.4131 0,0.46773 0,0.0223 -0.01575,0.0511 0,0.0668 0.01575,0.0158 0.05107,-0.0157 0.06682,0 0.01575,0.0158 -0.01,0.0469 0,0.0668 0.01409,0.0282 0.05273,0.0387 0.06682,0.0668 0.01992,0.0398 -0.0315,0.10213 0,0.13363 0.01575,0.0158 0.05107,-0.0157 0.06682,0 0.0315,0.0315 -0.01992,0.0938 0,0.13364 0.02817,0.0563 0.105462,0.0773 0.133635,0.13363 0.01,0.0199 -0.01575,0.0511 0,0.0668 0.01575,0.0158 0.05686,-0.0199 0.06682,0 0.01992,0.0398 -0.01992,0.0938 0,0.13363 0.01,0.0199 0.05107,-0.0157 0.06682,0 0.01575,0.0157 -0.01575,0.0511 0,0.0668 0.01575,0.0158 0.05107,-0.0157 0.06682,0 0.01575,0.0158 -0.01575,0.0511 0,0.0668 0.01575,0.0158 0.05107,-0.0157 0.06682,0 0.01575,0.0158 -0.01992,0.0569 0,0.0668 0.03984,0.0199 0.09138,-0.0141 0.133635,0 0.208558,0.0695 -0.02227,0.0445 0.06682,0.13363 0.0315,0.0315 0.09379,-0.0199 0.133635,0 0.02817,0.0141 0.03865,0.0527 0.06682,0.0668 0.01992,0.01 0.0469,-0.01 0.06682,0 0.02817,0.0141 0.04061,0.0493 0.06682,0.0668 0.04144,0.0276 0.0922,0.0392 0.133635,0.0668 0.05242,0.0349 0.07729,0.10547 0.133635,0.13364 0.01992,0.01 0.0469,-0.01 0.06682,0 0.02817,0.0141 0.03864,0.0527 0.06682,0.0668 0.01992,0.01 0.0469,-0.01 0.06682,0 0.02817,0.0141 0.03694,0.0568 0.06682,0.0668 0.04226,0.0141 0.09138,-0.0141 0.133635,0 0.0507,0.0169 0.205861,0.23657 0.26727,0.26727 0.03984,0.0199 0.09379,-0.0199 0.133634,0 0.06575,0.0329 0.20152,0.2344 0.26727,0.26727 0.02973,0.0149 0.236708,-0.0102 0.26727,0 0.05976,0.0199 0.07729,0.10546 0.133634,0.13364 0.01992,0.01 0.0469,-0.01 0.06682,0 0.05634,0.0282 0.07387,0.11371 0.133634,0.13363 0.200453,0.0668 0.06682,-0.0334 0.200453,0 0.06833,0.0171 0.135057,0.0407 0.200452,0.0668 0.04624,0.0185 0.08532,0.0547 0.133634,0.0668 0.06482,0.0162 0.137064,-0.0211 0.200453,0 0.294662,0.0982 0.07053,0.007 0.133634,0.13363 0.0383,0.0766 0.139416,0.0929 0.200452,0.13364 0.02621,0.0175 0.03864,0.0527 0.06682,0.0668 0.063,0.0315 0.132123,0.0497 0.200452,0.0668 0.02161,0.005 0.04829,-0.0123 0.06682,0 0.05242,0.0349 0.08909,0.0891 0.133635,0.13364 0.02227,0.0223 0.03865,0.0527 0.06682,0.0668 0.01992,0.01 0.04569,-0.007 0.06682,0 0.09449,0.0315 0.172775,0.10214 0.267269,0.13364 0.02113,0.007 0.0469,-0.01 0.06682,0 0.03569,0.0178 0.165275,0.16527 0.200452,0.20045 0.111362,0.11136 0.222725,0.22272 0.334087,0.33409 0.221605,0.2216 -0.063,-0.0315 0.133635,0.0668 0.147736,0.0739 0.02073,0.0415 0.06682,0.13364 0.02817,0.0563 0.105462,0.0773 0.133635,0.13363 0.02069,0.0414 -0.01977,0.2475 0,0.26727 0.03522,0.0352 0.106009,0.0254 0.133634,0.0668 0.02471,0.0371 -0.01409,0.0914 0,0.13363 0.01,0.0299 0.05273,0.0387 0.06682,0.0668 0.01,0.0199 0,0.0446 0,0.0668 0,0.0445 -0.01409,0.0914 0,0.13363 0.01,0.0299 0.05273,0.0387 0.06682,0.0668 0.01992,0.0398 -0.01992,0.0938 0,0.13364 0.01409,0.0282 0.05273,0.0386 0.06682,0.0668 0.021,0.042 -0.021,0.22528 0,0.26727 0.221605,0.22161 -0.0315,-0.063 0.06682,0.13364 0.01409,0.0282 0.05686,0.0369 0.06682,0.0668 0.01409,0.0422 -0.01992,0.0938 0,0.13363 0.01,0.0199 0.05107,-0.0157 0.06682,0 0.01575,0.0158 -0.01,0.0469 0,0.0668 0.08257,0.16513 0.06682,-0.0231 0.06682,0.13363 0,0.0223 0,0.0891 0,0.0668 0,-0.21827 0,-0.15145 0,0.0668 0,0.0659 0,0.1995 0,0.13363 0,-0.0445 -0.0315,-0.16513 0,-0.13363 0.0498,0.0498 0.05301,0.13139 0.06682,0.20045 0.01311,0.0655 0,0.13363 0,0.20045 0,0.0223 0.01,0.0469 0,0.0668 -0.0089,0.0177 -0.182711,0.19158 -0.200452,0.20045 -0.01992,0.01 -0.05107,-0.0157 -0.06682,0 -0.01575,0.0158 0.02227,0.0668 0,0.0668 -0.02227,0 -0.01,-0.0867 0,-0.0668 0.07386,0.14772 0.06682,0.15338 0.06682,0.26727 0,0.0223 -0.0054,0.0452 0,0.0668 0.01708,0.0683 0.04974,0.13212 0.06682,0.20045 0.0108,0.0432 -0.0108,0.0904 0,0.13364 0.01708,0.0683 0.04973,0.13212 0.06682,0.20045 0.0108,0.0432 0,0.0891 0,0.13363 0,0.0891 0,0.17818 0,0.26727 0,0.0668 0.01621,0.13563 0,0.20045 -0.01208,0.0483 -0.05107,0.0864 -0.06682,0.13364 -0.04859,0.14577 0.187553,0.0531 -0.133635,0.26727 -0.02621,0.0175 -0.04454,-0.0446 -0.06682,-0.0668 -0.08257,-0.0826 -0.03532,-0.0668 -0.133635,-0.0668 -0.215082,0 0.114064,0.0158 -0.133635,-0.0668 -0.04226,-0.0141 -0.08909,0 -0.133635,0 -0.02227,0 -0.0469,0.01 -0.06682,0 -0.05635,-0.0282 -0.08122,-0.0987 -0.133635,-0.13364 -0.03365,-0.14721 -0.137456,-0.0353 -0.200452,-0.0668 -0.02817,-0.0141 -0.04454,-0.0445 -0.06682,-0.0668 -0.04454,-0.0446 -0.08122,-0.0987 -0.133635,-0.13364 -0.01853,-0.0124 -0.04569,0.007 -0.06682,0 -0.04725,-0.0157 -0.08909,-0.0445 -0.133635,-0.0668 -0.04454,-0.0223 -0.08639,-0.0511 -0.133635,-0.0668 -0.153737,-0.0513 0.0201,0.0512 -0.133635,0 -0.121355,-0.0405 -0.124003,-0.0572 -0.200452,-0.13364 -0.02227,-0.0223 -0.03864,-0.0527 -0.06682,-0.0668 -0.01992,-0.01 -0.0469,0.01 -0.06682,0 -0.05635,-0.0282 -0.07514,-0.11023 -0.133634,-0.13363 -0.08526,-0.0341 -0.182006,-0.0327 -0.26727,-0.0668 -0.04604,-0.0184 -0.149465,-0.16646 -0.200452,-0.20045 -0.04144,-0.0276 -0.0922,-0.0392 -0.133635,-0.0668 -0.02621,-0.0175 -0.04454,-0.0445 -0.06682,-0.0668 -0.04454,-0.0445 -0.08909,-0.0891 -0.133635,-0.13363 -0.03518,-0.0352 -0.164766,-0.18261 -0.200452,-0.20045 -0.063,-0.0315 -0.144107,-0.0246 -0.200452,-0.0668 -0.208617,-0.15646 -0.0079,-0.0825 -0.06682,-0.20045 -0.02817,-0.0564 -0.09869,-0.0812 -0.133634,-0.13364 -0.02763,-0.0414 -0.03919,-0.0922 -0.06682,-0.13363 -0.03494,-0.0524 -0.105462,-0.0773 -0.133634,-0.13364 -0.01,-0.0199 0.007,-0.0457 0,-0.0668 -0.01575,-0.0473 -0.05107,-0.0864 -0.06682,-0.13364 -0.007,-0.0211 0.01,-0.0469 0,-0.0668 -0.01409,-0.0282 -0.05273,-0.0387 -0.06682,-0.0668 -0.01,-0.0199 0.01235,-0.0483 0,-0.0668 -0.106498,-0.15975 -0.154757,-0.0845 -0.200452,-0.26727 -0.0108,-0.0432 0.01409,-0.0914 0,-0.13363 -0.01,-0.0299 -0.04454,-0.0446 -0.06682,-0.0668 -0.02227,-0.0223 -0.03865,-0.0527 -0.06682,-0.0668 -0.09217,-0.0461 -0.05977,0.0809 -0.133635,-0.0668 -0.01,-0.0199 0.01,-0.0469 0,-0.0668 -0.01409,-0.0282 -0.05273,-0.0387 -0.06682,-0.0668 -0.01,-0.0199 0.01,-0.0469 0,-0.0668 -0.01409,-0.0282 -0.04935,-0.0406 -0.06682,-0.0668 -0.02763,-0.0414 -0.03694,-0.0938 -0.06682,-0.13363 -0.0378,-0.0504 -0.08909,-0.0891 -0.133635,-0.13364 -0.02227,-0.0223 -0.04061,-0.0493 -0.06682,-0.0668 -0.04144,-0.0276 -0.09842,-0.0316 -0.133635,-0.0668 -0.01575,-0.0158 0,-0.0445 0,-0.0668 -0.04455,-0.0445 -0.08324,-0.0958 -0.133635,-0.13363 -0.03984,-0.0299 -0.0922,-0.0392 -0.133634,-0.0668 -0.02621,-0.0175 -0.04061,-0.0493 -0.06682,-0.0668 -0.09737,-0.0649 -0.139172,-0.0417 -0.200452,-0.13363 -0.02763,-0.0414 -0.03919,-0.0922 -0.06682,-0.13364 -0.01747,-0.0262 -0.04454,-0.0445 -0.06682,-0.0668 -0.06682,-0.0668 -0.133635,-0.13364 -0.200452,-0.20046 -0.04454,-0.0445 -0.09869,-0.0812 -0.133635,-0.13363 -0.02763,-0.0414 -0.03919,-0.0922 -0.06682,-0.13364 -0.03494,-0.0524 -0.113714,-0.0739 -0.133635,-0.13363 -0.01409,-0.0423 0,-0.0891 0,-0.13363 0,-0.0223 0.01,-0.0469 0,-0.0668 -0.03485,-0.0697 -0.161602,-0.10567 -0.133635,-0.13364 0.02227,-0.0223 0.09832,0.0668 0.06682,0.0668 -0.0498,0 -0.09842,-0.0316 -0.133635,-0.0668 -0.01575,-0.0157 0.0469,-0.01 0.06682,0 0.02817,0.0141 0.04455,0.0446 0.06682,0.0668 0.118271,0.11827 0.119871,0.10611 0.200452,0.26727 0.02227,0.0445 0.05107,0.0864 0.06682,0.13363 0.01409,0.0423 -0.01992,0.0938 0,0.13364 0.02817,0.0563 0.105462,0.0773 0.133635,0.13363 0.01325,0.0265 -0.01366,0.1868 0,0.20046 0.01575,0.0157 0.04829,-0.0124 0.06682,0 0.126638,0.0844 0.138834,0.14403 0.200453,0.26727 0.02227,0.0445 0.05107,0.0864 0.06682,0.13363 0.0087,0.026 -0.01037,0.19008 0,0.20045 0.138248,0.13825 -0.0054,-0.21126 0.133635,0.0668 0.01,0.0199 -0.01,0.0469 0,0.0668 0.03628,0.0726 0.09735,0.0611 0.133635,0.13363 0.03576,0.0715 -0.05786,0.1426 0.06682,0.26727 0.01575,0.0157 0.0469,-0.01 0.06682,0 0.02817,0.0141 0.04454,0.0446 0.06682,0.0668 0.02227,0.0223 0.05273,0.0386 0.06682,0.0668 0.01,0.0199 -0.01575,0.0511 0,0.0668 0.01575,0.0158 0.0469,-0.01 0.06682,0 0.02817,0.0141 0.03865,0.0527 0.06682,0.0668 0.01992,0.01 0.06682,-0.0223 0.06682,0 0,0.0223 -0.08909,0 -0.06682,0 0.04454,0 0.08909,0 0.133635,0 0.02227,0 0.05107,-0.0158 0.06682,0 0.01575,0.0157 -0.01575,0.0511 0,0.0668 0.01575,0.0157 0.05107,-0.0158 0.06682,0 0.01575,0.0157 -0.01,0.0469 0,0.0668 0.01409,0.0282 0.04454,0.0445 0.06682,0.0668 0,0.0446 -0.01409,0.0914 0,0.13364 0.01508,0.0452 0.174931,0.14941 0.200452,0.20045 0.01,0.0199 -0.01,0.0469 0,0.0668 0.01409,0.0282 0.05273,0.0386 0.06682,0.0668 0.08228,0.16456 -0.193953,-0.0603 0.06682,0.20045 0.03522,0.0352 0.09842,0.0316 0.133634,0.0668 0.01575,0.0158 -0.007,0.0457 0,0.0668 0.138248,0.41474 -0.0054,-0.22207 0.133635,0.33409 0.0054,0.0216 -0.01,0.0469 0,0.0668 0.139039,0.27807 -0.0046,-0.0714 0.133635,0.0668 0.01575,0.0157 0.02227,0.0668 0,0.0668 -0.0315,0 -0.08909,-0.0891 -0.06682,-0.0668 0.04454,0.0445 0.09869,0.0812 0.133634,0.13364 0.01532,0.023 -0.01465,0.1858 0,0.20045 0.01575,0.0157 0.05107,-0.0157 0.06682,0 0.0315,0.0315 -0.01992,0.0938 0,0.13363 0.01409,0.0282 0.05273,0.0387 0.06682,0.0668 0.01,0.0199 0.02227,0.0668 0,0.0668 -0.02227,0 0,-0.0891 0,-0.0668 0,0.26727 0,0.53454 0,0.80181 0,0.0281 0.0099,0.38103 0,0.40091 -0.01409,0.0282 -0.05273,0.0386 -0.06682,0.0668 -0.02188,0.0438 0.01976,0.27479 0,0.33409 -0.01575,0.0473 -0.04455,0.0891 -0.06682,0.13363 -0.02227,0.0446 -0.03919,0.0922 -0.06682,0.13364 -0.01747,0.0262 -0.05273,0.0386 -0.06682,0.0668 -0.01,0.0199 0,0.0445 0,0.0668 0,0.0445 0.01409,0.0914 0,0.13363 -0.04432,0.13296 -0.06236,0.0312 -0.133635,0.0668 -0.01279,0.006 -0.260875,0.25448 -0.26727,0.26727 -0.01,0.0199 0.01,0.0469 0,0.0668 -0.05117,0.10234 -0.119069,0.0523 -0.200452,0.13364 -0.04093,0.0409 -0.05688,0.17487 -0.133635,0.20045 -0.04226,0.0141 -0.09138,-0.0141 -0.133634,0 -0.02988,0.01 -0.04455,0.0445 -0.06682,0.0668 -0.04454,0.0445 -0.08324,0.0958 -0.133635,0.13363 -0.03365,0.14721 -0.137456,0.0353 -0.200452,0.0668 -0.05497,0.0275 -0.217852,0.23432 -0.267269,0.26727 -0.01853,0.0124 -0.0469,-0.01 -0.06682,0 -0.02817,0.0141 -0.03864,0.0527 -0.06682,0.0668 -0.01992,0.01 -0.0469,-0.01 -0.06682,0 -0.02817,0.0141 -0.03864,0.0527 -0.06682,0.0668 -0.01992,0.01 -0.0469,-0.01 -0.06682,0 -0.02817,0.0141 -0.03864,0.0527 -0.06682,0.0668 -0.01992,0.01 -0.04454,0 -0.06682,0 -0.04454,0.0446 -0.08122,0.0987 -0.133635,0.13364 -0.03706,0.0247 -0.09379,-0.0199 -0.133635,0 -0.02817,0.0141 -0.03864,0.0527 -0.06682,0.0668 -0.01992,0.01 -0.04521,-0.005 -0.06682,0 -0.06833,0.0171 -0.133635,0.0446 -0.200452,0.0668"
       id="path863"
       inkscape:connector-curvature="0" />
    <path
       style="fill:none;stroke:#000000;stroke-width:0.26458332px;stroke-linecap:butt;stroke-linejoin:miter;stroke-opacity:1"
       d="m 6.2808339,292.25595 c 0.00795,-0.13567 0.3777186,-0.0368 0.4677217,-0.0668 0.047247,-0.0157 0.086388,-0.0511 0.1336347,-0.0668 0.02113,-0.007 0.046896,0.01 0.066817,0 0.028173,-0.0141 0.03626,-0.0592 0.066817,-0.0668 0.064822,-0.0162 0.1356299,0.0162 0.2004523,0 0.030557,-0.008 0.041619,-0.0479 0.066817,-0.0668 0.064244,-0.0482 0.1258914,-0.10381 0.200452,-0.13364 0.041359,-0.0165 0.091376,0.0141 0.133635,0 0.029882,-0.01 0.038645,-0.0527 0.066817,-0.0668 0.01992,-0.01 0.045688,0.007 0.066817,0 0.047247,-0.0158 0.086388,-0.0511 0.1336347,-0.0668 0.02113,-0.007 0.044545,0 0.066817,0 0.044545,-0.0223 0.08909,-0.0446 0.133635,-0.0668 0.08909,-0.0445 0.1818584,-0.0824 0.2672694,-0.13363 0.1911231,-0.11468 -0.1022186,-0.0328 0.2004523,-0.13364 0.02113,-0.007 0.046896,0.01 0.066817,0 0.028173,-0.0141 0.044545,-0.0445 0.066817,-0.0668 0.044545,-0.0445 0.081219,-0.0987 0.1336346,-0.13363 0.018531,-0.0124 0.046896,0.01 0.066817,0 0.028173,-0.0141 0.038645,-0.0527 0.066817,-0.0668 0.019921,-0.01 0.045688,0.007 0.066818,0 0.047247,-0.0157 0.086388,-0.0511 0.1336347,-0.0668 0.02113,-0.007 0.045688,0.007 0.066817,0 0.047247,-0.0158 0.086388,-0.0511 0.1336347,-0.0668 0.071001,-0.0237 0.1962687,0.0236 0.2672696,0 0.4839864,-0.16133 -0.1053449,0.0193 0.2004523,-0.13364 0.01992,-0.01 0.04569,0.007 0.06682,0 0.04725,-0.0157 0.08639,-0.0511 0.1336351,-0.0668 0.06339,-0.0211 0.13563,0.0162 0.200452,0 0.322658,-0.0807 -0.0033,-0.0318 0.200452,-0.13364 0.063,-0.0315 0.137457,-0.0353 0.200453,-0.0668 0.05635,-0.0282 0.07387,-0.11371 0.133634,-0.13363 0.06339,-0.0211 0.133635,0 0.200452,0 0.133635,0 0.26727,0 0.400904,0 0.489995,0 0.979989,0 1.469983,0 0.200452,0 0.400904,0 0.601356,0 0.04455,0 0.08909,0 0.133635,0 0.02227,0 0.06682,-0.0223 0.06682,0 0,0.0223 -0.08909,0 -0.06682,0 0.06682,0 0.133635,0 0.200452,0 0.02227,0 0.05107,-0.0157 0.06682,0 0.01575,0.0157 -0.01575,0.0511 0,0.0668 0.104823,0.10482 0.392106,0.0668 0.534539,0.0668 0.02227,0 0.04454,0 0.06682,0 0.02227,0 0.0469,-0.01 0.06682,0 0.02817,0.0141 0.03864,0.0527 0.06682,0.0668 0.01757,0.009 0.232329,0 0.267269,0 0.222725,0 0.445449,0 0.668174,0 0.04278,0 0.389553,-0.008 0.400904,0 0.05242,0.0349 0.08122,0.0987 0.133635,0.13364 0.01148,0.008 0.377581,0 0.400905,0 0.306585,0 0.431625,0 0.601356,0 0.01621,0 0.198303,-0.002 0.200452,0 0.01575,0.0157 -0.01575,0.0511 0,0.0668 0.01575,0.0158 0.04454,0 0.06682,0 0.04648,0 0.309924,-0.0121 0.334087,0 0.02817,0.0141 0.03694,0.0569 0.06682,0.0668 0.01265,0.004 0.388249,0.004 0.400904,0 0.02988,-0.01 0.03865,-0.0527 0.06682,-0.0668 0.01992,-0.01 0.04455,0 0.06682,0 0.04454,-0.0445 0.08122,-0.0987 0.133635,-0.13363 0.03706,-0.0247 0.09379,0.0199 0.133634,0 0.02817,-0.0141 0.04454,-0.0446 0.06682,-0.0668 0.04454,0 0.09137,0.0141 0.133634,0 0.05976,-0.0199 0.07729,-0.10546 0.133635,-0.13363 0.01992,-0.01 0.04454,0 0.06682,0 0.04454,0 0.09042,0.0108 0.133634,0 0.107872,-0.027 0.132531,-0.0657 0.200452,-0.13364 0.02227,-0.0223 0.03864,-0.0527 0.06682,-0.0668 0.03984,-0.0199 0.09379,0.0199 0.133635,0 0.02817,-0.0141 0.03864,-0.0527 0.06682,-0.0668 0.01992,-0.01 0.04454,0 0.06682,0 0.04454,0 0.09138,0.0141 0.133635,0 0.04525,-0.0151 0.149411,-0.17494 0.200452,-0.20045 0.063,-0.0315 0.132124,-0.0497 0.200452,-0.0668 0.02161,-0.005 0.06682,-0.0223 0.06682,0 0,0.0223 -0.08909,0 -0.06682,0 0.01588,0 0.252294,-0.007 0.26727,0 0.02817,0.0141 0.03864,0.0527 0.06682,0.0668 0.01992,0.01 0.05107,-0.0157 0.06682,0 0.01575,0.0157 0,0.0445 0,0.0668 0,0.0668 0,0.13364 0,0.20045 0,0.245 0,0.49 0,0.735 0,0.0729 0.0144,0.29087 0,0.33408 -0.01575,0.0473 -0.05107,0.0864 -0.06682,0.13364 -0.007,0.0211 0.01,0.0469 0,0.0668 -0.01409,0.0282 -0.05686,0.0369 -0.06682,0.0668 -0.01409,0.0423 0.01409,0.0914 0,0.13364 -0.01,0.0299 -0.05686,0.0369 -0.06682,0.0668 -0.01409,0.0423 0.01992,0.0938 0,0.13364 -0.01,0.0199 -0.05107,-0.0157 -0.06682,0 -0.01575,0.0157 0.01,0.0469 0,0.0668 -0.01409,0.0282 -0.05273,0.0386 -0.06682,0.0668 -0.01,0.0199 0,0.0446 0,0.0668 0,0.0446 0.0108,0.0904 0,0.13364 -0.01208,0.0483 -0.03919,0.0922 -0.06682,0.13363 -0.110802,0.1662 -0.01535,0.008 -0.133634,0.0668 -0.03094,0.0155 -0.227972,0.22797 -0.26727,0.26727 -0.0525,0.0525 -0.291526,0.3128 -0.334087,0.33408 -0.03984,0.0199 -0.09379,-0.0199 -0.133635,0 -0.02817,0.0141 -0.04454,0.0446 -0.06682,0.0668 -0.07645,0.0764 -0.0791,0.0932 -0.200452,0.13364 -0.05777,0.0193 -0.29157,-0.0213 -0.334087,0 -0.02817,0.0141 -0.03865,0.0527 -0.06682,0.0668 -0.01757,0.009 -0.23233,0 -0.26727,0 -0.244997,0 -0.489994,0 -0.734991,0 -0.568098,0 -0.84694,0 -1.135895,0 -0.111363,0 -0.222725,0 -0.334087,0 -0.02227,0 -0.04454,0 -0.06682,0 -0.02227,0 -0.04828,0.0124 -0.06682,0 -0.05242,-0.0349 -0.08122,-0.0987 -0.133635,-0.13364 -0.02298,-0.0153 -0.185804,0.0147 -0.200452,0 -0.01575,-0.0157 0.01575,-0.0511 0,-0.0668 -0.01366,-0.0137 -0.17396,0.0133 -0.200452,0 -0.02817,-0.0141 -0.03694,-0.0568 -0.06682,-0.0668 -0.0342,-0.0114 -0.353135,0 -0.400904,0 -0.02227,0 -0.04829,0.0124 -0.06682,0 -0.05242,-0.0349 -0.07729,-0.10546 -0.133635,-0.13363 -0.04612,-0.023 -0.33463,0.0166 -0.400905,0 -0.04832,-0.0121 -0.08639,-0.0511 -0.133634,-0.0668 -0.056,-0.0187 -0.222988,0.0221 -0.26727,0 -0.02817,-0.0141 -0.03864,-0.0527 -0.06682,-0.0668 -0.042,-0.021 -0.225273,0.021 -0.26727,0 -0.02817,-0.0141 -0.03864,-0.0527 -0.06682,-0.0668 -0.05345,-0.0267 -0.146998,0.0267 -0.200452,0 -0.05634,-0.0282 -0.07387,-0.11372 -0.133635,-0.13364 -0.04226,-0.0141 -0.08909,0 -0.133635,0 -0.133634,0 -0.267269,0 -0.400904,0 -0.04455,0 -0.09042,0.0108 -0.133635,0 -0.04832,-0.0121 -0.08532,-0.0547 -0.133635,-0.0668 -0.04321,-0.0108 -0.08909,0 -0.133634,0 -0.133635,0 -0.26727,0 -0.400905,0 -0.01588,0 -0.252293,-0.007 -0.267269,0 -0.05634,0.0282 -0.07729,0.10546 -0.133635,0.13363 -0.01992,0.01 -0.04569,-0.007 -0.06682,0 -0.04725,0.0157 -0.08739,0.0483 -0.133635,0.0668 -0.06539,0.0262 -0.135715,0.0391 -0.200452,0.0668 -0.09155,0.0392 -0.172775,0.10214 -0.267269,0.13364 -0.04226,0.0141 -0.0897,-0.007 -0.133635,0 -0.555656,0.0926 -0.05494,0.0183 -0.400904,0.13363 -0.056,0.0187 -0.222988,-0.0221 -0.26727,0 -0.02817,0.0141 -0.03865,0.0527 -0.06682,0.0668 -0.01992,0.01 -0.0469,-0.01 -0.06682,0 -0.07183,0.0359 -0.1286257,0.0977 -0.2004521,0.13364 -0.01992,0.01 -0.045688,-0.007 -0.066817,0 -0.047247,0.0157 -0.085319,0.0547 -0.1336349,0.0668 -0.08643,0.0216 -0.1808396,-0.0216 -0.2672694,0 -0.048316,0.0121 -0.085319,0.0547 -0.1336347,0.0668 -0.043215,0.0108 -0.091376,-0.0141 -0.133635,0 -0.029881,0.01 -0.03626,0.0592 -0.066817,0.0668 -0.064822,0.0162 -0.1356297,-0.0162 -0.200452,0 -0.030558,0.008 -0.038645,0.0527 -0.066817,0.0668 -0.062996,0.0315 -0.1350581,0.0406 -0.2004523,0.0668 -0.046241,0.0185 -0.084799,0.0571 -0.1336347,0.0668 -0.06552,0.0131 -0.1349322,-0.0131 -0.200452,0 -0.3838898,0.0768 0.019177,0.0668 -0.2004523,0.0668 -0.068217,0 -0.43526,-0.0108 -0.4677217,0 -0.029881,0.01 -0.038644,0.0527 -0.066817,0.0668 -0.019921,0.01 -0.044545,0 -0.066817,0 -0.044545,0.0445 -0.081219,0.0987 -0.1336347,0.13363 -0.024892,0.0166 -0.2242881,-0.0143 -0.2672696,0 -0.047247,0.0157 -0.086388,0.0511 -0.1336347,0.0668 -0.02113,0.007 -0.044545,0 -0.066817,0 -0.056704,0 -0.3640693,-0.0123 -0.4009043,0 -0.029882,0.01 -0.036936,0.0569 -0.066817,0.0668 -0.060136,0.02 -0.1403165,-0.0201 -0.2004523,0 -0.047247,0.0157 -0.085319,0.0547 -0.1336347,0.0668 -0.043215,0.0108 -0.08909,0 -0.1336347,0 -0.022273,0 -0.048286,-0.0123 -0.066817,0 -0.052416,0.0349 -0.07729,0.10546 -0.1336349,0.13364 -0.050115,0.025 -0.2617073,-0.0181 -0.3340867,0 -0.068329,0.0171 -0.1313882,0.053 -0.2004523,0.0668 -0.08736,0.0175 -0.1781797,0 -0.2672694,0 -0.1336347,0 -0.2672697,0 -0.4009044,0 -0.1113623,0 -0.2227246,0 -0.3340869,0 -0.022273,0 -0.044545,0 -0.066817,0 -0.022273,0 -0.046896,0.01 -0.066817,0 -0.01279,-0.006 -0.2608744,-0.25448 -0.2672697,-0.26727 -0.019921,-0.0399 0.019921,-0.0938 0,-0.13364 -0.014086,-0.0282 -0.044545,-0.0445 -0.066817,-0.0668 -0.022272,-0.0223 -0.040609,-0.0493 -0.066817,-0.0668 -0.041438,-0.0276 -0.098419,-0.0316 -0.1336348,-0.0668 -0.038524,-0.0385 0.044341,-0.13302 0.066817,-0.20045 0.00704,-0.0211 0,-0.0446 0,-0.0668 0,-0.0668 0,-0.13363 0,-0.20045 0,-0.12807 -0.019921,-0.0313 0.1336348,-0.13364 0.052416,-0.0349 0.08909,-0.0891 0.1336348,-0.13363 0.022273,-0.0223 0.049345,-0.0406 0.066817,-0.0668 0.027625,-0.0414 0.031602,-0.0984 0.066817,-0.13364 0.035216,-0.0352 0.092197,-0.0392 0.1336347,-0.0668 0.052416,-0.0349 0.07729,-0.10546 0.1336347,-0.13364 0.062996,-0.0315 0.1374563,-0.0353 0.2004523,-0.0668 0.028173,-0.0141 0.038645,-0.0527 0.066817,-0.0668 0.062996,-0.0315 0.1400575,-0.0306 0.2004521,-0.0668 0.054019,-0.0324 0.08909,-0.0891 0.1336349,-0.13363 0.022273,-0.0223 0.036936,-0.0569 0.066817,-0.0668 0.042259,-0.0141 0.08909,0 0.1336347,0 0.022273,0 0.046896,0.01 0.066817,0 0.028173,-0.0141 0.038645,-0.0527 0.066817,-0.0668 0.021294,-0.0106 0.2743708,0 0.334087,0 0.035695,0 0.3149637,0.01 0.3340869,0 0.028173,-0.0141 0.036936,-0.0568 0.066817,-0.0668 0.042259,-0.0141 0.08909,0 0.1336347,0 0.044545,0 0.092276,-0.0165 0.1336347,0 0.092481,0.037 0.1695984,0.15317 0.2672696,0.13364 0.1574901,-0.0315 0.2647082,-0.18215 0.4009043,-0.26727 0.042233,-0.0264 0.086388,-0.0511 0.1336347,-0.0668 0.082948,-0.0276 0.0728,0.0549 0.1336347,-0.0668 0.00996,-0.0199 -0.00996,-0.0469 0,-0.0668 0.014086,-0.0282 0.052731,-0.0387 0.066817,-0.0668 0.01992,-0.0398 -0.01992,-0.0938 0,-0.13363 0.014086,-0.0282 0.052731,-0.0387 0.066818,-0.0668 0.02131,-0.0426 -0.017865,-0.31623 0,-0.33409 0.015748,-0.0157 0.051068,0.0157 0.066817,0 0.015748,-0.0157 0,-0.0445 0,-0.0668 0,-0.11136 0,-0.22272 0,-0.33408 0,-0.0223 0,-0.0446 0,-0.0668 0,-0.0223 -0.00996,-0.0469 0,-0.0668 0.014086,-0.0282 0.056857,-0.0369 0.066817,-0.0668 0.014086,-0.0423 0,-0.0891 0,-0.13363 0,-0.0223 -0.00996,-0.0469 0,-0.0668 0.1528984,-0.3058 -0.027694,0.28353 0.1336347,-0.20045 0.041142,-0.12343 -0.101957,-0.0317 0.066817,-0.20045 0.015748,-0.0157 0.046896,0.01 0.066817,0 0.028173,-0.0141 0.035319,-0.0668 0.066818,-0.0668 0.022273,0 -0.015748,0.0511 0,0.0668 0.015748,0.0157 0.046896,-0.01 0.066817,0 0.028173,0.0141 0.038645,0.0527 0.066817,0.0668 0.034939,0.0175 0.3424913,-0.0146 0.4009044,0 0.068329,0.0171 0.1307282,0.0568 0.200452,0.0668 0.1984375,0.0283 0.4018992,-0.0199 0.6013564,0 0.1130041,0.0113 0.2209115,0.0574 0.334087,0.0668 0.1553686,0.0129 0.3118143,0 0.4677217,0 0.1781804,0 0.3563595,0 0.5345395,0 0.222725,0 0.445449,0 0.668174,0 0.01588,0 0.252293,-0.007 0.267269,0 0.111394,0.0557 0.03019,0.13363 0.200452,0.13363 0.04455,0 0.176218,-0.0131 0.133635,0 -0.309952,0.0952 -0.623615,0.17779 -0.935423,0.26669"
       id="path865"
       inkscape:connector-curvature="0" />
    <path
       style="fill:none;stroke:#000000;stroke-width:0.26458332px;stroke-linecap:butt;stroke-linejoin:miter;stroke-opacity:1"
       d="m 20.780285,288.1128 c 0.400878,-0.26711 0.801755,-0.53423 1.202633,-0.80134 0,-0.0983 -0.01575,-0.0511 0.06682,-0.13363 0.02227,-0.0223 0.04454,-0.0445 0.06682,-0.0668 0.02227,-0.0223 0.04454,-0.0891 0.06682,-0.0668 0.02227,0.0223 -0.04454,0.0445 -0.06682,0.0668"
       id="path867"
       inkscape:connector-curvature="0" />
    <path
       style="fill:none;stroke:#000000;stroke-width:0.26458332px;stroke-linecap:butt;stroke-linejoin:miter;stroke-opacity:1"
       d="m 22.116558,287.11103 c 0.267268,-0.17819 0.534536,-0.35637 0.801803,-0.53456 0.04454,0 0.09042,0.0108 0.133635,0 0.04334,-0.0108 0.358324,-0.17206 0.400904,-0.20045 0.05242,-0.0349 0.08909,-0.0891 0.133635,-0.13364"
       id="path869"
       inkscape:connector-curvature="0" />
    <path
       style="fill:none;stroke:#000000;stroke-width:0.26458332px;stroke-linecap:butt;stroke-linejoin:miter;stroke-opacity:1"
       d="m 23.586535,286.24238 c 0.02227,-0.0668 2e-6,-0.22272 0.06682,-0.20045 0.06682,0.0223 -0.123161,0.24271 -0.06682,0.20045 0.139162,-0.10437 0.22088,-0.26883 0.334087,-0.4009 0.0205,-0.0239 0.03865,-0.0527 0.06682,-0.0668 0.03984,-0.0199 0.09138,0.0141 0.133635,0 0.483986,-0.16133 -0.105344,0.0193 0.200452,-0.13363 0.063,-0.0315 0.137457,-0.0353 0.200452,-0.0668 0.02817,-0.0141 0.03864,-0.0527 0.06682,-0.0668 0.01992,-0.01 0.04521,0.005 0.06682,0 0.06833,-0.0171 0.132124,-0.0497 0.200452,-0.0668 0.02161,-0.005 0.04829,0.0123 0.06682,0 0.05242,-0.035 0.08122,-0.0987 0.133635,-0.13364 0.01853,-0.0124 0.04569,0.007 0.06682,0 0.04725,-0.0158 0.08639,-0.0511 0.133635,-0.0668 0.06339,-0.0211 0.137063,0.0211 0.200452,0 0.02988,-0.01 0.03864,-0.0527 0.06682,-0.0668 0.01992,-0.01 0.0469,0.01 0.06682,0 0.02817,-0.0141 0.03693,-0.0569 0.06682,-0.0668 0.04226,-0.0141 0.08909,0 0.133635,0 0.02227,0 0.04828,0.0123 0.06682,0 0.05242,-0.035 0.07729,-0.10546 0.133635,-0.13364 0.03984,-0.0199 0.09138,0.0141 0.133635,0 0.02988,-0.01 0.03864,-0.0527 0.06682,-0.0668 0.01992,-0.01 0.0469,0.01 0.06682,0 0.02817,-0.0141 0.03693,-0.0569 0.06682,-0.0668 0.04226,-0.0141 0.09042,0.0108 0.133635,0 0.04832,-0.0121 0.08639,-0.0511 0.133634,-0.0668 0.02113,-0.007 0.0469,0.01 0.06682,0 0.05635,-0.0282 0.08122,-0.0987 0.133635,-0.13363 0.04144,-0.0276 0.08909,-0.0446 0.133634,-0.0668 0.04454,-0.0223 0.08639,-0.0511 0.133635,-0.0668 0.02113,-0.007 0.0469,0.01 0.06682,0 0.02817,-0.0141 0.03864,-0.0527 0.06682,-0.0668 0.01992,-0.01 0.04828,0.0124 0.06682,0 0.05242,-0.0349 0.08122,-0.0987 0.133634,-0.13363 0.01852,-0.0124 0.04521,0.005 0.06682,0 0.06833,-0.0171 0.132123,-0.0497 0.200451,-0.0668 0.02162,-0.005 0.04569,0.007 0.06682,0 0.04725,-0.0158 0.08639,-0.0511 0.133636,-0.0668 0.02114,-0.007 0.04689,0.01 0.06682,0 0.02817,-0.0141 0.03864,-0.0527 0.06682,-0.0668 0.03984,-0.0199 0.09379,0.0199 0.133633,0 0.05635,-0.0282 0.07387,-0.11372 0.133635,-0.13364 0.304171,0 0.0038,0.0315 0.200451,-0.0668 0.02973,-0.0149 0.23671,0.0102 0.267269,0 0.02988,-0.01 0.03864,-0.0527 0.06682,-0.0668 0.01992,-0.01 0.04455,0 0.06682,0 0.02228,0 0.04454,0 0.06682,0 0.04766,0 0.28476,0.0123 0.334087,0 0.06833,-0.0171 0.132122,-0.0497 0.200451,-0.0668 0.04322,-0.0108 0.08909,0 0.133635,0 0.06682,0 0.133636,0 0.200454,0 0.02228,0 0.04454,0 0.06681,0 0.02228,0 0.0469,0.01 0.06682,0 0.05635,-0.0282 0.07729,-0.10546 0.133636,-0.13363 0.04149,-0.0207 0.35809,0.0214 0.400904,0 0.02817,-0.0141 0.03864,-0.0527 0.06682,-0.0668 0.01992,-0.01 0.04454,0 0.06682,0 0.04454,0 0.08909,0 0.133635,0 0.111363,0 0.222724,0 0.334087,0 0.02228,0 0.0469,0.01 0.06682,0 0.02817,-0.0141 0.03864,-0.0527 0.06682,-0.0668 0.01992,-0.01 0.04454,0 0.06682,0 0.04454,0 0.08909,0 0.133636,0 0.02228,0 0.04454,0 0.06682,0 0.02228,0 0.06682,-0.0223 0.06682,0 0,0.0223 -0.06682,0.0223 -0.06682,0 0,-0.0223 0.04454,0 0.06682,0 0.04455,0 0.08909,0 0.133634,0"
       id="path873"
       inkscape:connector-curvature="0" />
  </g>
</svg>
